<?xml version="1.0" encoding="utf-8"?>
<!-- Generator: Adobe Illustrator 15.1.0, SVG Export Plug-In . SVG Version: 6.00 Build 0)  -->
<!DOCTYPE svg PUBLIC "-//W3C//DTD SVG 1.1//EN" "http://www.w3.org/Graphics/SVG/1.1/DTD/svg11.dtd">
<svg version="1.1" id="Layer_1" xmlns="http://www.w3.org/2000/svg" xmlns:xlink="http://www.w3.org/1999/xlink" x="0px" y="0px"
	 width="53.529px" height="60.564px" viewBox="0 0 53.529 60.564" enable-background="new 0 0 53.529 60.564" xml:space="preserve">
<g>
	<path fill="#F26724" d="M50.547,25.312L50.547,25.312l-1.451-0.076l-0.766-0.459l-0.918,0.765l0.076-0.612l0.23-0.229l-0.383,0.076
		l0.307-0.229l-0.23-0.535l-0.229,0.383l-0.078-0.46l-0.076,0.153l0.076-0.153l-0.229,0.077l-0.229-0.306l-0.076,0.229v-0.382
		l-0.152,0.229l-0.612-0.459l-0.076,0.153l-0.459-0.153l-0.306,0.611l0.306,0.077l-0.306,0.152l-0.153-0.229L44.201,24.7
		l0.152-0.536l-0.766,0.153l1.072-0.306l0.382-0.918l-1.3-0.229l-0.307,0.688l-0.076-0.383l-0.306,0.383V23.17l-0.306,0.383
		l0.306-0.688l0.993-0.918h-0.229l0.152-0.383l-0.611-0.306l-0.382-1.683l-0.229-0.152l-0.076,0.306l-0.842,1.224v0.152
		l-0.611-0.152l-0.23,0.229l-0.305-0.229l0.383-0.842l-0.383-1.146l0.305-0.612l-0.152-0.076h-2.143l-0.916-0.842l-0.23,0.383
		l0.154-0.765l-0.459-0.459l-0.765-0.459v0.153l0.076,0.077v1.223l0.076,0.076v2.142l0.076,0.076v5.047h1.147l0.611-0.534
		l0.689,0.152l0.459-0.459l0.84,0.076l0.307,0.153l-0.076,0.229h0.229l1.07-0.612l-0.994,0.612l-0.611,0.077l-0.306,0.917
		l0.152-0.994l0.382,0.077l-0.687-0.153h0.382l-0.306-0.229L39.23,24.7l-0.613-0.153l-0.84,0.765l-0.766-0.229l-0.229,0.077v0.076
		l-0.076,0.076v2.142l-0.076,0.076v1.3l-0.076,0.076v1.071l-0.076,0.076v0.077h0.841l0.152,0.076h1.605l0.078,0.076h1.451
		l0.078,0.077h1.299l0.076,0.076h1.224l0.077,0.076h1.07l0.078,0.076h1.068l0.078,0.076h0.841l0.076,0.076h0.917l0.078,0.076h0.84
		l0.076,0.078h0.766l0.076,0.076h0.688l0.076-0.076v-0.459l0.076-0.076v-0.46l0.077-0.076v-0.458l0.076-0.077v-0.611l0.076-0.076
		v-0.612l0.076-0.076v-1.147l0.076-0.153v-1.07l0.078-0.076v-0.153H50.547z M36.63,25.082l-1.377,0.459l-0.458-0.229l-0.842,0.612
		l-0.076-0.307l0.229-0.076l-1.069-0.459l-0.077,0.153l-0.383-0.611l-0.535-0.229h-0.994l-0.611,0.765l-0.84-0.077l-0.23,0.383
		l0.152,0.076l-0.383,0.229l-0.305-0.382l-0.918-0.153l-0.307-0.383l-0.917,0.229l0.306-0.153l-0.23-0.076l0.382,0.076l0.458-0.076
		l0.307,0.459l0.918,0.077l0.383,0.458l0.305-0.229l-0.229-0.076l0.307-0.382l0.916-0.077l0.535-0.611l1.529-0.076l0.765,0.917
		l0.995,0.459l0.459-0.306l0.306,0.229l0.765-0.229l0.076-0.383l0.612,0.077l-0.458-0.077l-0.766-1.224l-1.529-0.841l-2.065-0.076
		l0.382-0.153l1.606,0.077l1.606,0.917l1.147,1.377v-5.048L36.4,20.035v-2.141l-0.076-0.077v-1.3l-0.076-0.076v-0.383l-0.152-0.076
		l-0.461,0.076v-0.611l-0.61-0.383l-0.536,0.076l-0.076-0.153h-1.071l-0.076-0.076h-3.669l-0.154-0.076h-1.605l0.076,0.229v0.306
		L27.453,15.6l-0.306-0.612l0.076-0.152h-2.829l0.076,0.383l-0.993,0.688l0.076,0.46l-0.841-0.918l-0.765-0.383l-0.536-0.077
		l-0.229,0.153v0.307L21.105,15.6v0.229l0.765-0.382l0.46,0.458l0.229-0.076l-0.229,0.383l0.841,1.07l-0.23,1.759l0.382,0.229
		L23.248,19.5l-0.458,0.765l-0.613,0.229l0.076,0.459l-0.382,0.076l0.078,0.459l-0.765,0.229v2.446l0.076-0.076l0.076,0.307
		l-0.23,0.611v2.6l0.765,1.147l0.612,1.377h0.613l0.152-0.077h3.365l0.076,0.077h5.429l0.076,0.076h2.678l0.077,0.076h1.224v-0.076
		l0.076-0.076v-1.071l0.076-0.076v-1.453l0.076-0.076v-2.142l0.077-0.076v-0.153H36.63z M35.713,14.835l0.076-0.459l-0.536,0.077
		l0.153,0.382l-0.382,0.152L35.713,14.835z M27.453,14.835l0.307-0.459l-0.307-0.611l0.612-0.383l-0.46-0.306l-1.147,0.918
		l-0.687-0.076l-0.078,0.229l-0.458-0.076L24.929,14.3l-0.305,0.459v0.076H27.453z M34.643,14.911l-0.307-0.306l0.765-0.229h-1.76
		l0.46,0.153l-1.07,0.306l-0.919-0.459l-1.452,0.077l-0.229-0.459l-0.917-0.229l-0.307-0.536l-0.153,0.46l0.382-0.077v0.153
		l-0.229-0.076l-1.07,0.534l0.306,0.612h1.606l0.152,0.076h3.671l0.076,0.076h0.995V14.911z M35.713,14.835l0.076-0.459
		l-0.536,0.077l0.153,0.382l-0.382,0.152L35.713,14.835z M21.335,25.082l-0.995,0.688l0.382,1.07l-0.229,0.23l0.917,0.611v-2.601
		H21.335z M21.335,24.547h-0.23l0.078,0.229l0.076-0.076v-0.153H21.335z M21.335,22.329l-0.382,0.383l0.152,0.229l-0.458,0.306
		l0.076,1.07l0.46,0.307l0.229-0.307v-1.988H21.335z M21.335,21.794l-0.076,0.076l0.076,0.307V21.794z M30.971,17.741l0.307-0.688
		l0.534-0.383l0.612-0.229l0.612,0.229l1.835-0.688l0.077-0.23l-0.153-0.611l0.229,0.765l0.306,0.077l-1.759,0.459l-0.612,0.229
		l-0.535-0.229l-0.535,0.229L30.971,17.741z M34.566,16.594l-0.078,0.765l-0.152-0.611L34.566,16.594z M21.335,24.624l0.076-0.077
		h-0.076V24.624z M30.971,17.741l0.307-0.688l0.534-0.383l0.612-0.229l0.612,0.229l1.835-0.688l0.077-0.23l-0.153-0.611l0.229,0.765
		l0.306,0.077l-1.759,0.459l-0.612,0.229l-0.535-0.229l-0.535,0.229L30.971,17.741z M34.566,16.594l-0.078,0.765l-0.152-0.611
		L34.566,16.594z M43.895,22.865l0.23-0.307l-0.461,0.076L43.895,22.865z M42.9,24.547l-0.152-0.459l0.611,0.076l-0.229,0.307
		l0.076,0.229L42.9,24.164V24.547z M40.301,18.889l0.076,0.305l-0.382,0.077L40.301,18.889z M39.154,23.63l0.459,0.076l0.076,0.306
		L39.154,23.63z M36.63,25.006L36.63,25.006L36.63,25.006z M43.895,22.865l0.23-0.307l-0.461,0.076L43.895,22.865z M42.9,24.547
		l-0.152-0.459l0.611,0.076l-0.229,0.307l0.076,0.229L42.9,24.164V24.547z M40.301,18.889l0.076,0.305l-0.382,0.077L40.301,18.889z
		 M52.537,30.971l0.84-1.224l0.152-0.918l-0.152-1.3l-0.229-0.306l-0.917-0.229l-0.765-1.07l-0.919-0.765v0.152l-0.076,0.077v1.069
		l-0.076,0.153v0.918l-0.076,0.076v0.612l-0.076,0.076v0.765l-0.077,0.076v0.459l-0.076,0.076v0.46l-0.076,0.076v0.458l-0.076,0.076
		l0.076,0.076h0.765l0.076,0.078h0.612l0.152,0.076h0.536H52.537z M52.537,30.971l0.84-1.224l0.152-0.918l-0.152-1.3l-0.229-0.306
		l-0.917-0.229l-0.765-1.07l-0.919-0.765 M35.33,45.118l0.076-0.536l0.152-0.152l0.537-1.071l0.382-0.229l1.682,0.229h-1.987
		l-0.613,1.377L35.33,45.118h1.3l0.076,0.076h1.605l0.077,0.076h1.377l0.076,0.076h1.146l0.078,0.077h0.152l0.382-0.46l0.765-0.458
		l0.383-0.993l-0.076-0.613l0.382-0.458l-0.229-0.154l0.306,0.078l0.534-0.536l0.844-0.535h0.61l0.765-0.612l0.459,0.154
		l0.306-0.307l-0.076,0.229l0.612,0.078l0.076-0.383l0.688-0.306v-0.383l0.917-1.146l0.076-0.154v-0.076l0.076-0.076v-0.076
		l0.078-0.076V37.93l0.076-0.076v-0.076l0.076-0.078v-0.152l0.076-0.076v-0.23l0.076-0.534v-0.154l0.077-0.076v-0.229l0.076-0.153
		v-0.152l0.076-0.076v-0.078l0.076-0.152v-0.229l0.076-0.076v-0.229l0.078-0.078v-0.229l0.076-0.076v-0.306l0.076-0.154v-0.229
		l0.076-0.076v-0.229l0.076-0.076v-0.23l0.077-0.076v-0.382l0.076-0.076v-0.23l0.076-0.152v-0.307l0.076-0.152v-0.306l0.076-0.154
		v-0.382l0.078-0.076V30.74h-0.688l-0.076-0.076h-0.765l-0.078-0.076h-0.841l-0.076-0.076h-0.917l-0.078-0.076h-0.84l-0.076-0.076
		h-1.071l-0.076-0.077h-1.071l-0.076-0.076h-1.223l-0.076-0.076h-1.301l-0.076-0.077h-1.453l-0.076-0.076h-1.606l-0.153-0.077
		h-0.842v0.917l-0.076,0.154v0.765l-0.076,0.076v1.071l-0.076,0.076v0.688l-0.077,0.076v0.688l-0.076,0.076v0.534l-0.076,0.154
		v0.534l-0.076,0.076v0.46l-0.076,0.076v0.459L36.4,36.935v0.536l-0.076,0.076v0.459l-0.076,0.076v0.46l-0.076,0.076v0.458
		l-0.076,0.076v0.383l-0.078,0.076v0.46l-0.076,0.076v0.306l-0.076,0.152v0.307l-0.076,0.076v0.382l-0.076,0.076v0.307l-0.078,0.076
		v0.306l-0.076,0.076v0.383l-0.076,0.076v0.229l-0.076,0.077v0.382l-0.076,0.076v0.307l-0.077,0.076v0.229l-0.076,0.076v0.23
		l-0.076,0.076v0.306l-0.076,0.076v0.307H35.33z M22.713,30.206l0.458,0.993l1.147,1.607l-0.154,0.382l0.382,0.611l0.612,0.612
		l2.677,1.453l0.841,0.841l0.076,1.147v1.07l-0.459,1.529l0.076,1.3l-0.841,2.524l0.154,0.687l-0.078,0.078l0.078,0.076h4.434
		l0.076,0.076h2.449l0.076,0.076h0.382v-0.229l0.076-0.078v-0.305l0.076-0.077v-0.229l0.077-0.076v-0.23l0.076-0.076v-0.306
		l0.076-0.076v-0.383l0.076-0.076v-0.23l0.076-0.076v-0.382l0.078-0.076v-0.307l0.076-0.076v-0.306l0.076-0.076v-0.383l0.076-0.077
		v-0.305l0.076-0.154v-0.306l0.078-0.076v-0.459l0.076-0.076v-0.382l0.076-0.076v-0.46l0.076-0.076v-0.459l0.076-0.076v-0.458
		l0.077-0.078V37.24l0.076-0.152V36.63l0.076-0.078v-0.458l0.076-0.076v-0.535l0.076-0.153v-0.535l0.077-0.076v-0.688l0.076-0.076
		v-0.688L36.4,32.883v-0.689v-0.076v-0.765l0.077-0.153v-0.917h-1.225l-0.076-0.076H32.5l-0.076-0.076h-5.429l-0.076-0.077h-3.365
		L23.4,30.13h-0.687V30.206z M49.096,38.312l0.229-0.229l0.229-0.918l0.383-0.458l0.765-3.671l0.076-0.152l0.076,0.306l0.307-0.229
		l1.377-1.912l-0.154-0.076h-0.535l-0.153-0.076h-0.61l-0.076-0.078h-0.766l-0.077-0.076v0.383l-0.076,0.076v0.382l-0.076,0.154
		v0.306l-0.076,0.152V32.5l-0.076,0.152v0.23l-0.078,0.076v0.382l-0.076,0.076v0.23l-0.076,0.076v0.229l-0.076,0.076v0.229
		l-0.076,0.154v0.229L49.4,34.718v0.229l-0.076,0.076v0.23l-0.076,0.076v0.229l-0.076,0.152v0.076l-0.076,0.078v0.229l-0.078,0.153
		v0.229l-0.076,0.076v0.154l-0.076,0.076v0.229l-0.076,0.076v0.152l-0.076,0.076v0.154l-0.078,0.076v0.23l-0.076,0.076v0.076
		l-0.076,0.076v0.076L49.096,38.312z M26,57.582L26,57.582L26,57.582z M25.771,53.758l0.305-0.152v-0.841h-0.305l-0.078,0.307
		l-0.152,0.61L25.771,53.758z M26.306,54.601l0.076-0.229l-0.306,0.152L26.306,54.601z M25.235,56.817l0.306,0.077l-0.152-0.306
		L25.235,56.817z M26.154,57.047l0.076-0.382l0.152,0.229l0.076-0.229l0.154,0.382H26.154z M26.306,55.9l0.152-0.307l0.842,0.076
		h-0.612L26.306,55.9z M27.147,52.152l0.306,0.23l-0.306,0.076V52.152z M26.458,52.535v-0.229l0.23,0.229H26.458z M25.465,55.441
		l0.229,0.076l-0.152,0.152L25.465,55.441z M25.235,57.582l0.23-0.076l-0.154-0.688l-0.076,0.46l-0.306-0.078l0.23,0.307l0.23-0.307
		L25.235,57.582z M26,57.582h0.918l0.152,0.077h1.299l-0.076-0.153l0.076,0.153h0.23l0.229-0.536l1.07-0.61l0.077-0.46l-0.46-0.076
		l-0.383-0.535l0.461-0.458l0.764-0.23l0.229-0.765l0.613-0.383l-0.383-0.229l0.383-0.076l0.152,0.229l0.306-0.229l-0.076-0.307
		l-0.458,0.23l-0.307-0.23l0.152-0.841l0.688,0.307l0.841-0.152l0.23-0.995l0.152,0.076l-0.076-0.382l0.688,0.153l0.688-0.077
		v-0.229l0.076-0.076v-0.154l0.076-0.076v-0.229l0.076-0.076v-0.229l0.076-0.078v-0.152l0.078-0.076v-0.229l0.076-0.076v-0.076
		l0.076-0.076v-0.307l0.076-0.076v-0.229l0.076-0.076v-0.23l0.077-0.076v-0.307l0.076-0.076v-0.229l0.076-0.076v-0.152l0.076-0.076
		v-0.23l0.076-0.076V46.8l0.077-0.076v-0.23l0.076-0.076v-0.306l0.076-0.076v-0.152l-0.458,0.534v0.841l-0.076-0.917l0.61-0.612
		V45.5l0.076-0.076v-0.229l0.078-0.076l0,0H35.33l-0.077-0.076h-2.446l-0.076-0.078h-4.437l-0.076-0.076l-0.306,0.459v2.065
		l-1.071,2.294l-0.382,0.152l0.306,1.377l-0.458,0.993l0.306,0.383l-0.23,0.077l0.458-0.153l0.23,0.076l0.23-0.076l-0.306,0.382
		l0.306,0.154L27.223,53.3l-0.229-0.152l0.229,0.229L26.995,53.3l-0.154,0.612l0.23,0.229l-0.382,0.154l0.382,0.229l-0.535,0.382
		l0.458,0.078l-0.382,0.076l-0.076,0.229l0.229-0.076l-0.229,0.536l-0.154-0.23l-0.306,0.076l0.23-0.076h-0.23l0.154-0.229
		L26,55.441l-0.152-0.153l-0.23,0.077l0.306,0.076l-0.152,0.229l-0.46,0.23l0.23,0.152L25.389,55.9l0.305-0.152l0.078,0.229
		l0.305-0.076l0.154,0.306l-0.306,0.152h0.382l-0.458,0.154l0.458-0.078l0.306,0.23l-0.23-0.076l0.154,0.229l-0.612-0.152
		l0.382,0.229L26,57.047l0.23,0.076L26,57.506l0.23-0.152l0.229,0.306l-0.305-0.077l0.076,0.229H26V57.582z M25.771,53.758
		l0.305-0.152v-0.841h-0.305l-0.078,0.307l-0.152,0.61L25.771,53.758z M26.306,54.601l0.076-0.229l-0.306,0.152L26.306,54.601z
		 M25.235,56.817l0.306,0.077l-0.152-0.306L25.235,56.817z M26.154,57.047l0.076-0.382l0.152,0.229l0.076-0.229l0.154,0.382H26.154z
		 M26.306,55.9l0.152-0.307l0.842,0.076h-0.612L26.306,55.9z M27.147,52.152l0.306,0.23l-0.306,0.076V52.152z M26.458,52.535v-0.229
		l0.23,0.229H26.458z M25.465,55.441l0.229,0.076l-0.152,0.152L25.465,55.441z M35.406,45.118l-0.076,0.458l-0.306,0.383v0.229
		l-0.076,0.076v0.307l-0.077,0.076v0.229l-0.076,0.077v0.229l-0.076,0.076v0.154l-0.076,0.076v0.152l-0.076,0.077v0.229
		l-0.078,0.076v0.307l-0.076,0.076v0.23l-0.076,0.076v0.229l-0.076,0.076v0.23l-0.076,0.076V49.4l-0.078,0.076v0.229l-0.076,0.076
		v0.152l-0.076,0.078v0.229l-0.076,0.076v0.153l-0.076,0.076v0.152l-0.077,0.078v0.229l0.919-0.152l0.61-0.307l0.688-0.765
		l0.076-0.382l-0.383-0.23l0.23-0.458l-0.765-0.611l0.229-0.919l-0.077,0.612l0.306,0.383l0.919,0.383l1.224-0.154l1.146-1.069
		l0.459-0.843l0.917-0.993l-0.076-0.229l0.382,0.306l-1.146,1.147l0.918-0.688l0.611-0.765H40.76l-0.076-0.076h-1.146l-0.078-0.076
		h-1.376l-0.076-0.076H36.4l-0.076-0.078h-0.918V45.118z M26.076,57.582l0.612,0.077l-0.458,0.076v0.229L26.076,57.582
		L26.076,57.582z M28.83,60.259l0.766-0.229l-1.071-0.383l-0.383-0.688l-0.765,0.152v0.307l0.459,0.076L27.453,59.8l0.459,0.23
		l-0.229,0.152v-0.229l-0.154,0.076l-0.535-0.23l0.382,0.23l-0.23,0.076l-0.076-0.152l-0.458,0.152L28.83,60.259z M27.377,60.259
		l0.229,0.229l-0.076-0.152h0.307l-0.076,0.152l0.382,0.076l-0.458-0.382l0.305-0.076L27.377,60.259z M26.076,59.724l0.382-0.152
		l-0.382-0.229l-0.305,0.152L26.076,59.724l0.23-0.076L26.076,59.724z M26.154,59.266l0.229,0.152l-0.076-0.152l0.535-0.23h-0.535
		L26.154,59.266z M25.618,59.266l0.458,0.152l-0.765-0.383L25.618,59.266z M27.071,59.724l0.306,0.152l-0.076-0.305L27.071,59.724z
		 M26.995,59.8l-0.306-0.152V59.8H26.995z M25.235,57.659h-0.229l0.076,0.229L25.235,57.659z M28.448,57.659L28.448,57.659h0.229
		H28.448z M26.076,57.582l0.612,0.077l-0.458,0.076v0.229L26.076,57.582h-0.458l0.076,0.229l-0.382-0.076l0.382,0.076v0.23
		l0.23-0.23l0.152,0.152l-0.458,0.154l0.23,0.076l-0.154,0.229L26,58.652v-0.229l0.076,0.229L26,58.347l0.382,0.153L26,58.271
		l0.23-0.152l-0.076,0.229l0.305,0.153l-0.229,0.383l0.076-0.23l-0.152,0.23v-0.154h-0.306v0.383l0.382-0.152L26,59.189l0.23,0.076
		l0.076-0.307h0.612l0.076,0.307l-0.306,0.229l0.076-0.229l-0.306,0.076l0.46,0.229l0.229-0.612l0.841-0.23l0.382,0.078
		l-0.229-0.383h-0.306h0.306l-0.229-0.229l0.612-0.459l-0.076-0.076h-1.301l-0.152-0.077H26.076z M28.83,60.259l0.766-0.229
		l-1.071-0.383l-0.383-0.688l-0.765,0.152v0.307l0.459,0.076L27.453,59.8l0.459,0.23l-0.229,0.152v-0.229l-0.154,0.076l-0.535-0.23
		l0.382,0.23l-0.23,0.076l-0.076-0.152l-0.458,0.152L28.83,60.259z M27.377,60.259l0.229,0.229l-0.076-0.152h0.307l-0.076,0.152
		l0.382,0.076l-0.458-0.382l0.305-0.076L27.377,60.259z M26.076,59.724l0.382-0.152l-0.382-0.229l-0.305,0.152L26.076,59.724
		l0.23-0.076L26.076,59.724z M26.154,59.266l0.229,0.152l-0.076-0.152l0.535-0.23h-0.535L26.154,59.266z M25.618,59.266l0.458,0.152
		l-0.765-0.383L25.618,59.266z M27.071,59.724l0.306,0.152l-0.076-0.305L27.071,59.724z M26.995,59.8l-0.306-0.152V59.8H26.995z
		 M25.235,57.659h-0.229l0.076,0.229L25.235,57.659z"/>
	<polygon fill="#F26724" points="29.289,34.336 29.978,34.946 29.748,35.177 29.596,34.87 29.441,35.022 28.906,34.641 
		28.982,34.182 	"/>
	<polygon fill="#F26724" points="31.047,37.164 30.818,36.782 30.971,36.323 	"/>
	<polygon fill="#F26724" points="29.289,34.336 29.978,34.946 29.748,35.177 29.596,34.87 29.441,35.022 28.906,34.641 
		28.982,34.182 	"/>
	<polygon fill="#F26724" points="31.047,37.164 30.818,36.782 30.971,36.323 	"/>
	<polygon fill="#F26724" points="45.5,39.383 45.194,39.152 45.042,39.307 45.194,39.076 45.042,38.694 45.576,38.618 45.5,38.771 
		45.73,39.076 45.348,38.694 45.194,38.847 	"/>
	<polygon fill="#F26724" points="46.037,37.471 45.883,37.471 46.037,37.088 45.807,37.24 46.037,36.858 46.266,37.316 	"/>
	<polygon fill="#F26724" points="42.824,40.529 43.282,40.529 43.206,40.758 	"/>
	<polygon fill="#F26724" points="45.5,39.383 45.194,39.152 45.042,39.307 45.194,39.076 45.042,38.694 45.576,38.618 45.5,38.771 
		45.73,39.076 45.348,38.694 45.194,38.847 	"/>
	<polygon fill="#F26724" points="46.037,37.471 45.883,37.471 46.037,37.088 45.807,37.24 46.037,36.858 46.266,37.316 	"/>
	<polygon fill="#F26724" points="42.824,40.529 43.282,40.529 43.206,40.758 	"/>
	<path fill="#F26724" d="M4.741,9.788l0.076-0.306L4.741,9.788z"/>
	<path fill="#F26724" d="M4.741,9.788l0.076-0.306L4.741,9.788z"/>
	<polygon fill="#F26724" points="6.576,9.023 6.271,8.947 6.194,9.176 6.118,8.794 	"/>
	<polygon fill="#F26724" points="5.735,7.8 5.889,7.876 5.429,7.8 	"/>
	<polygon fill="#F26724" points="6.576,9.023 6.271,8.947 6.194,9.176 6.118,8.794 	"/>
	<polygon fill="#F26724" points="5.735,7.8 5.889,7.876 5.429,7.8 	"/>
	<polygon fill="#F26724" points="12.235,10.323 12.694,10.705 12.235,10.553 	"/>
	<polygon fill="#F26724" points="16.747,13.076 16.823,13.306 16.517,13.152 	"/>
	<polygon fill="#F26724" points="17.129,13.306 17.818,14.07 17.129,13.918 	"/>
	<polygon fill="#F26724" points="12.235,10.323 12.694,10.705 12.235,10.553 	"/>
	<polygon fill="#F26724" points="16.747,13.076 16.823,13.306 16.517,13.152 	"/>
	<polygon fill="#F26724" points="17.129,13.306 17.818,14.07 17.129,13.918 	"/>
	<path fill="#F26724" d="M0.765,1.605l0.229-1.147l0.765,0.383L1.683,1.605h0.305l0.229-0.076L6.423,1.3L6.5,1.223h1.147
		L6.806,1.835L6.271,1.529L6.194,0.917L6.041,0.765L5.583,0.306H4.588L4.359,0.611L2.982,0.688L1.3,0L0.153,0.152L0.076,1.682h0.459
		l0.076-0.076H0.765z M29.441,2.752v0.307l-0.229-0.229L29.441,2.752z M29.441,2.752v0.307l-0.229-0.229L29.441,2.752z
		 M23.554,3.517l0.152,0.077l0.154-0.459L23.4,2.829l0.306,0.229L23.554,3.517z M24.395,4.129v0.229V4.053l-0.458-0.306
		L24.395,4.129z M23.095,4.588l0.229-0.229l-0.382-0.382l-0.152,0.458L23.095,4.588z M23.554,3.517l0.152,0.077l0.154-0.459
		L23.4,2.829l0.306,0.229L23.554,3.517z M24.395,4.129v0.229V4.053l-0.458-0.306L24.395,4.129z M23.095,4.588l0.229-0.229
		l-0.382-0.382l-0.152,0.458L23.095,4.588z M23.4,4.817h-0.229l0.076-0.229l-0.23,0.076l0.23,0.229L23.4,4.817z M23.4,4.817h-0.229
		l0.076-0.229l-0.23,0.076l0.23,0.229L23.4,4.817z M19.424,6.576L19.806,6.5L19.73,6.271L19.5,6.193L19.424,6.576z M21.642,5.506
		l-0.765-0.153l-2.065,0.383l-0.229,0.458l-0.458,0.077h0.611l0.918-0.611h0.611l0.154,0.152l-0.382,0.076l0.229,0.153l1.301,0.229
		V5.888l0.076-0.076V5.506z M19.424,6.576L19.806,6.5L19.73,6.271L19.5,6.193L19.424,6.576z M27.988,9.023l0.306-0.383l1.53,0.229
		l0.229-0.306l-0.919-0.383l0.307-0.152h-0.459l-0.229-0.307l-2.064-0.229L26.23,7.723l0.535,0.153l-0.076,0.306l0.382,0.383
		l-1.299-0.077l-0.23,0.153L26,8.947l1.301-0.153l0.459,0.458L27.988,9.023z M31.812,9.1l0.229-0.306h-1.146L30.971,9.1H31.812z
		 M35.101,10.553l0.306-0.229l-0.229-0.229l-0.229,0.153L35.101,10.553z M26.536,6.882l0.076-0.229l-0.458,0.229H26.536z
		 M21.642,6.271l0.917,0.153l0.459,0.611l0.612,0.076l0.076,0.229l-0.458,0.382l1.988-0.076l0.612-0.229l-1.147-0.306l0.076-0.306
		L23.86,6.652l-1.99-1.07l-0.152-0.076v0.382l-0.076,0.076V6.271z M27.988,9.023l0.306-0.383l1.53,0.229l0.229-0.306l-0.919-0.383
		l0.307-0.152h-0.459l-0.229-0.307l-2.064-0.229L26.23,7.723l0.535,0.153l-0.076,0.306l0.382,0.383l-1.299-0.077l-0.23,0.153
		L26,8.947l1.301-0.153l0.459,0.458L27.988,9.023z M31.812,9.1l0.229-0.306h-1.146L30.971,9.1H31.812z M35.101,10.553l0.306-0.229
		l-0.229-0.229l-0.229,0.153L35.101,10.553z M26.536,6.882l0.076-0.229l-0.458,0.229H26.536z M27.988,9.023l0.382-0.383L29.9,8.87
		l0.229-0.306l-0.917-0.383l0.305-0.152h-0.459L28.83,7.723l-2.065-0.229l-0.458,0.229l0.535,0.153l-0.076,0.306l0.382,0.383
		l-1.299-0.077l-0.23,0.153l0.458,0.307l1.301-0.153l0.459,0.458L27.988,9.023z M34.643,14.911l-0.307-0.306l0.765-0.229h-1.76
		l0.46,0.153l-1.07,0.306l-0.919-0.459l-1.452,0.077l-0.229-0.459l-0.917-0.229l-0.307-0.536l-0.153,0.46l0.382-0.077v0.153
		l-0.229-0.076l-1.07,0.534l0.306,0.612 M21.642,6.271l0.917,0.153l0.459,0.611l0.612,0.076l0.076,0.229l-0.458,0.382l1.988-0.076
		l0.612-0.229l-1.147-0.306l0.076-0.306L23.86,6.652l-1.99-1.07l-0.152-0.076 M27.453,14.835l0.307-0.459l-0.307-0.611l0.612-0.383
		l-0.46-0.306l-1.147,0.918l-0.687-0.076l-0.078,0.229l-0.458-0.076L24.929,14.3l-0.382,0.459v0.076 M23.554,3.517l0.152,0.077
		l0.154-0.459L23.4,2.829l0.306,0.229L23.554,3.517z M35.713,14.835l0.076-0.459l-0.536,0.077l0.153,0.382l-0.382,0.152
		L35.713,14.835z M23.4,4.817h-0.229l0.076-0.229l-0.23,0.076l0.23,0.229L23.4,4.817z M24.395,4.129v0.229V4.053l-0.458-0.306
		L24.395,4.129z M31.812,9.1l0.229-0.306h-1.146L30.971,9.1H31.812z M23.095,4.588l0.229-0.229l-0.382-0.382l-0.152,0.458
		L23.095,4.588z M35.101,10.553l0.306-0.229l-0.229-0.229l-0.229,0.153L35.101,10.553z M26.536,6.882l0.076-0.229l-0.458,0.229
		H26.536z M0.076,1.682v0.153L0.688,2.6L0.382,2.982l0.153,0.152H0l0.458,0.612l0.306-0.23l0.382,0.612L0.918,4.97l0.841,0.766
		l0.076,0.458l0.382-0.229L2.141,5.429L1.683,5.199V3.823L1.223,3.059L1.3,2.6L0.841,1.605 M1.759,1.605v0.612l0.382,0.611h0.306
		L2.294,3.212l0.612,0.611L2.6,4.205l0.612,0.383v0.229l0.917,1.146l0.306,0.994L4.053,7.417l0.229,0.076L3.977,7.646l0.076,0.229
		l1.071,1.147l0.994,0.229l0.458,0.46L7.265,9.94 M1.605,2.218L1.683,2.37l0.076-0.306L1.605,2.218z M1.605,2.218L1.683,2.37
		l0.076-0.306L1.605,2.218z M1.759,1.605v0.612l0.382,0.611h0.306L2.294,3.212l0.612,0.611L2.6,4.205l0.612,0.383v0.229l0.917,1.146
		l0.306,0.994L4.053,7.417l0.229,0.076L3.977,7.646l0.076,0.229l1.071,1.147l0.994,0.229l0.458,0.46L7.265,9.94V9.788l0.076-0.076
		l1.3-7.112v0.152l0.076-0.076V2.446L8.794,2.37L7.57,1.682l0.077-0.076V1.376L7.723,1.3H6.576L6.5,1.376L2.217,1.529L2.065,1.605
		H1.759z M0.076,1.682v0.153L0.688,2.6L0.382,2.982l0.153,0.152H0l0.458,0.612l0.306-0.23l0.382,0.612L0.918,4.97l0.841,0.766
		l0.076,0.458l0.382-0.229L2.141,5.429L1.683,5.199V3.823L1.223,3.059L1.3,2.6L0.841,1.605H0.765L0.688,1.682H0.076z M1.605,2.218
		L1.683,2.37l0.076-0.306L1.605,2.218z M17.588,14.835l-0.229-0.229l0.305,0.229h1.377l-0.612-0.994l0.612-2.218l-0.152-0.688
		l-1.147-0.458l-2.294,0.229l-0.536-0.152h-0.229l0.305-1.377l0.382-0.458h0.23l0.23-0.307l0.076,0.459l0.382-0.994L16.059,7.8
		l0.765-1.147L15.906,6.5l-1.529,0.382l-0.459,1.224l-0.612,0.612l-0.535-0.153l-1.453,0.459l-0.458-0.459H10.4L9.406,6.271V6.041
		l0.229-1.3l0.077-0.46l0.306-0.076L9.941,4.435l0.305-0.611L9.1,3.594L8.947,2.829l-0.765-1.3L7.647,1.453L7.57,1.529l0,0
		L7.494,1.605l1.223,0.688L8.641,2.37V2.6L8.565,2.676v0.076l-1.3,7.112L7.188,9.94v0.153l2.218,0.765l1.606-0.382L13,12.006
		l1.988,0.535l-0.229-0.077l0.993-0.152l0.078,0.382h-0.306l1.453,1.301l-0.23,0.152l0.23,0.076v0.536h0.611V14.835z M21.335,16.67
		l-0.382-0.535l0.382-0.229v-0.229l0.076-0.152v-0.229l-0.841,0.458l-0.612-0.305l0.078,0.229L19.73,15.6l-0.536-0.765h-1.375
		l0.076,0.076l0.841,0.688v0.459h0.23l-0.076-0.229l0.382,0.536l0.076-0.23l0.765,0.077l0.229,0.382l0.382-0.229l0.078,0.534h0.305
		L21.335,16.67z M17.129,14.835v0.076l0.382,0.229l0.23-0.229l-0.078-0.152h-0.535V14.835z"/>
</g>
</svg>
