<?xml version="1.0" encoding="utf-8"?>
<!-- Generator: Adobe Illustrator 15.1.0, SVG Export Plug-In . SVG Version: 6.00 Build 0)  -->
<!DOCTYPE svg PUBLIC "-//W3C//DTD SVG 1.1//EN" "http://www.w3.org/Graphics/SVG/1.1/DTD/svg11.dtd">
<svg version="1.1" id="Layer_1" xmlns="http://www.w3.org/2000/svg" xmlns:xlink="http://www.w3.org/1999/xlink" x="0px" y="0px"
	 width="162.4px" height="79.2px" viewBox="0 0 162.4 79.2" style="enable-background:new 0 0 162.4 79.2;" xml:space="preserve">
<style type="text/css">
<![CDATA[
	.st0{fill:#F26522;}
	.st1{fill:#FFFFFF;}
]]>
</style>
<g>
	<polygon class="st0" points="109.3,30.5 109.6,30.3 109,29.4 108.8,29.5 109.3,30.1 108.9,30.4 	"/>
	<polygon class="st0" points="109.3,30.5 109.6,30.3 109,29.4 108.8,29.5 109.3,30.1 108.9,30.4 	"/>
	<path class="st0" d="M158.5,33.1L158.5,33.1l-1.9-0.1l-1-0.6l-1.2,1l0.1-0.8l0.3-0.3l-0.5,0.1l0.4-0.3l-0.3-0.7l-0.3,0.5l-0.1-0.6
		l-0.1,0.2l0.1-0.2l-0.3,0.1l-0.3-0.4l-0.1,0.3v-0.5l-0.2,0.3l-0.8-0.6l-0.1,0.2l-0.6-0.2l-0.4,0.8l0.4,0.1l-0.4,0.2l-0.2-0.3
		l-0.8,1l0.2-0.7l-1,0.2l1.4-0.4l0.5-1.2l-1.7-0.3l-0.4,0.9l-0.1-0.5l-0.4,0.5v-0.5l-0.4,0.5l0.4-0.9l1.3-1.2h-0.3l0.2-0.5l-0.8-0.4
		l-0.5-2.2l-0.3-0.2l-0.1,0.4l-1.1,1.6l0,0.2l-0.8-0.2l-0.3,0.3l-0.4-0.3l0.5-1.1l-0.5-1.5l0.4-0.8l-0.2-0.1H143l-1.2-1.1l-0.3,0.5
		l0.2-1l-0.6-0.6l-1-0.6v0.2l0.1,0.1V23l0.1,0.1v2.8l0.1,0.1v6.6h1.5l0.8-0.7l0.9,0.2l0.6-0.6l1.1,0.1l0.4,0.2l-0.1,0.3h0.3l1.4-0.8
		l-1.3,0.8l-0.8,0.1l-0.4,1.2l0.2-1.3l0.5,0.1l-0.9-0.2h0.5l-0.4-0.3l-1,0.6l-0.8-0.2l-1.1,1l-1-0.3l-0.3,0.1V33l-0.1,0.1v2.8
		l-0.1,0.1v1.7l-0.1,0.1v1.4l-0.1,0.1v0.1h1.1l0.2,0.1h2.1l0.1,0.1h1.9l0.1,0.1h1.7l0.1,0.1h1.6l0.1,0.1h1.4l0.1,0.1h1.4l0.1,0.1
		h1.1l0.1,0.1h1.2l0.1,0.1h1.1l0.1,0.1h1l0.1,0.1h0.9l0.1-0.1v-0.6l0.1-0.1v-0.6l0.1-0.1v-0.6l0.1-0.1v-0.8l0.1-0.1v-0.8l0.1-0.1V35
		l0.1-0.2v-1.4l0.1-0.1V33.1z M140.3,32.8l-1.8,0.6l-0.6-0.3l-1.1,0.8l-0.1-0.4l0.3-0.1l-1.4-0.6l-0.1,0.2l-0.5-0.8l-0.7-0.3H133
		l-0.8,1l-1.1-0.1l-0.3,0.5l0.2,0.1l-0.5,0.3l-0.4-0.5l-1.2-0.2l-0.4-0.5l-1.2,0.3l0.4-0.2l-0.3-0.1l0.5,0.1l0.6-0.1l0.4,0.6
		l1.2,0.1l0.5,0.6l0.4-0.3l-0.3-0.1l0.4-0.5l1.2-0.1l0.7-0.8l2-0.1l1,1.2l1.3,0.6l0.6-0.4l0.4,0.3l1-0.3l0.1-0.5l0.8,0.1l-0.6-0.1
		l-1-1.6l-2-1.1l-2.7-0.1l0.5-0.2l2.1,0.1l2.1,1.2l1.5,1.8v-6.6l-0.1-0.1v-2.8l-0.1-0.1v-1.7l-0.1-0.1V21l-0.2-0.1l-0.6,0.1v-0.8
		l-0.8-0.5l-0.7,0.1l-0.1-0.2h-1.4l-0.1-0.1h-4.8l-0.2-0.1h-2.1l0.1,0.3v0.4l-0.6,0.3l-0.4-0.8l0.1-0.2h-3.7l0.1,0.5l-1.3,0.9
		l0.1,0.6l-1.1-1.2l-1-0.5l-0.7-0.1l-0.3,0.2v0.4l-0.1,0.2v0.3l1-0.5l0.6,0.6l0.3-0.1l-0.3,0.5l1.1,1.4l-0.3,2.3l0.5,0.3l-0.1,0.3
		l-0.6,1l-0.8,0.3l0.1,0.6l-0.5,0.1l0.1,0.6l-1,0.3v3.2l0.1-0.1l0.1,0.4l-0.3,0.8v3.4l1,1.5l0.8,1.8h0.8l0.2-0.1h4.4l0.1,0.1h7.1
		l0.1,0.1h3.5l0.1,0.1h1.6v-0.1l0.1-0.1v-1.4l0.1-0.1V36l0.1-0.1v-2.8l0.1-0.1V32.8z M139.1,19.4l0.1-0.6l-0.7,0.1l0.2,0.5l-0.5,0.2
		L139.1,19.4z M128.3,19.4l0.4-0.6l-0.4-0.8l0.8-0.5l-0.6-0.4l-1.5,1.2l-0.9-0.1l-0.1,0.3l-0.6-0.1l-0.4,0.3l-0.4,0.6v0.1H128.3z
		 M137.7,19.5l-0.4-0.4l1-0.3H136l0.6,0.2l-1.4,0.4l-1.2-0.6l-1.9,0.1l-0.3-0.6l-1.2-0.3l-0.4-0.7l-0.2,0.6l0.5-0.1V18l-0.3-0.1
		l-1.4,0.7l0.4,0.8h2.1l0.2,0.1h4.8l0.1,0.1H137.7z M139.1,19.4l0.1-0.6l-0.7,0.1l0.2,0.5l-0.5,0.2L139.1,19.4z M120.3,32.8
		l-1.3,0.9l0.5,1.4l-0.3,0.3l1.2,0.8V32.8z M120.3,32.1h-0.3l0.1,0.3l0.1-0.1V32.1z M120.3,29.2l-0.5,0.5L120,30l-0.6,0.4l0.1,1.4
		l0.6,0.4l0.3-0.4V29.2z M120.3,28.5l-0.1,0.1l0.1,0.4V28.5z M132.9,23.2l0.4-0.9l0.7-0.5l0.8-0.3l0.8,0.3l2.4-0.9l0.1-0.3l-0.2-0.8
		l0.3,1l0.4,0.1l-2.3,0.6l-0.8,0.3l-0.7-0.3l-0.7,0.3L132.9,23.2z M137.6,21.7l-0.1,1l-0.2-0.8L137.6,21.7z M120.3,32.2l0.1-0.1
		h-0.1V32.2z M132.9,23.2l0.4-0.9l0.7-0.5l0.8-0.3l0.8,0.3l2.4-0.9l0.1-0.3l-0.2-0.8l0.3,1l0.4,0.1l-2.3,0.6l-0.8,0.3l-0.7-0.3
		l-0.7,0.3L132.9,23.2z M137.6,21.7l-0.1,1l-0.2-0.8L137.6,21.7z M149.8,29.9l0.3-0.4l-0.6,0.1L149.8,29.9z M148.5,32.1l-0.2-0.6
		l0.8,0.1l-0.3,0.4l0.1,0.3l-0.4-0.7L148.5,32.1z M145.1,24.7l0.1,0.4l-0.5,0.1L145.1,24.7z M143.6,30.9l0.6,0.1l0.1,0.4L143.6,30.9
		z M140.3,32.7L140.3,32.7L140.3,32.7z M149.8,29.9l0.3-0.4l-0.6,0.1L149.8,29.9z M148.5,32.1l-0.2-0.6l0.8,0.1l-0.3,0.4l0.1,0.3
		l-0.4-0.7L148.5,32.1z M145.1,24.7l0.1,0.4l-0.5,0.1L145.1,24.7z M161.1,40.5l1.1-1.6l0.2-1.2l-0.2-1.7l-0.3-0.4l-1.2-0.3l-1-1.4
		l-1.2-1v0.2l-0.1,0.1v1.4l-0.1,0.2v1.2l-0.1,0.1v0.8l-0.1,0.1V38l-0.1,0.1v0.6l-0.1,0.1v0.6l-0.1,0.1v0.6l-0.1,0.1l0.1,0.1h1
		l0.1,0.1h0.8l0.2,0.1h0.7L161.1,40.5z M161.1,40.5l1.1-1.6l0.2-1.2l-0.2-1.7l-0.3-0.4l-1.2-0.3l-1-1.4l-1.2-1 M138.6,59l0.1-0.7
		l0.2-0.2l0.7-1.4l0.5-0.3l2.2,0.3h-2.6l-0.8,1.8L138.6,59h1.7l0.1,0.1h2.1l0.1,0.1h1.8l0.1,0.1h1.5l0.1,0.1h0.2l0.5-0.6l1-0.6
		l0.5-1.3l-0.1-0.8l0.5-0.6l-0.3-0.2l0.4,0.1l0.7-0.7l1.1-0.7h0.8l1-0.8l0.6,0.2l0.4-0.4l-0.1,0.3l0.8,0.1l0.1-0.5l0.9-0.4v-0.5
		l1.2-1.5l0.1-0.2v-0.1l0.1-0.1v-0.1l0.1-0.1v-0.3l0.1-0.1v-0.1l0.1-0.1v-0.2l0.1-0.1v-0.3L157,48v-0.2l0.1-0.1v-0.3l0.1-0.2V47
		l0.1-0.1v-0.1l0.1-0.2v-0.3l0.1-0.1v-0.3l0.1-0.1v-0.3l0.1-0.1V45l0.1-0.2v-0.3l0.1-0.1v-0.3l0.1-0.1v-0.3l0.1-0.1v-0.5l0.1-0.1
		v-0.3l0.1-0.2v-0.4l0.1-0.2v-0.4l0.1-0.2v-0.5l0.1-0.1v-0.5h-0.9l-0.1-0.1h-1l-0.1-0.1h-1.1l-0.1-0.1h-1.2l-0.1-0.1h-1.1l-0.1-0.1
		h-1.4l-0.1-0.1h-1.4l-0.1-0.1h-1.6l-0.1-0.1h-1.7l-0.1-0.1h-1.9l-0.1-0.1h-2.1l-0.2-0.1h-1.1v1.2l-0.1,0.2v1l-0.1,0.1V43l-0.1,0.1
		V44l-0.1,0.1V45l-0.1,0.1v0.7l-0.1,0.2v0.7l-0.1,0.1v0.6l-0.1,0.1v0.6l-0.1,0.2V49l-0.1,0.1v0.6l-0.1,0.1v0.6l-0.1,0.1v0.6
		l-0.1,0.1v0.5l-0.1,0.1v0.6l-0.1,0.1v0.4l-0.1,0.2v0.4l-0.1,0.1v0.5l-0.1,0.1v0.4l-0.1,0.1v0.4l-0.1,0.1v0.5l-0.1,0.1v0.3l-0.1,0.1
		v0.5l-0.1,0.1v0.4l-0.1,0.1v0.3l-0.1,0.1V58l-0.1,0.1v0.4l-0.1,0.1V59H138.6z M122.1,39.5l0.6,1.3l1.5,2.1l-0.2,0.5l0.5,0.8
		l0.8,0.8l3.5,1.9l1.1,1.1l0.1,1.5v1.4l-0.6,2l0.1,1.7l-1.1,3.3l0.2,0.9l-0.1,0.1l0.1,0.1h5.8l0.1,0.1h3.2l0.1,0.1h0.5v-0.3l0.1-0.1
		v-0.4l0.1-0.1v-0.3l0.1-0.1v-0.3l0.1-0.1v-0.4l0.1-0.1v-0.5l0.1-0.1v-0.3l0.1-0.1v-0.5l0.1-0.1v-0.4l0.1-0.1v-0.4l0.1-0.1v-0.5
		l0.1-0.1v-0.4l0.1-0.2v-0.4l0.1-0.1v-0.6l0.1-0.1v-0.5l0.1-0.1v-0.6l0.1-0.1v-0.6l0.1-0.1v-0.6l0.1-0.1v-0.6l0.1-0.2v-0.6l0.1-0.1
		v-0.6l0.1-0.1v-0.7l0.1-0.2v-0.7l0.1-0.1v-0.9l0.1-0.1v-0.9L140,43v-0.9L140,42v-1l0.1-0.2v-1.2h-1.6l-0.1-0.1h-3.5l-0.1-0.1h-7.1
		l-0.1-0.1h-4.4l-0.2,0.1H122.1z M156.6,50.1l0.3-0.3l0.3-1.2l0.5-0.6l1-4.8l0.1-0.2l0.1,0.4l0.4-0.3l1.8-2.5l-0.2-0.1h-0.7
		l-0.2-0.1h-0.8l-0.1-0.1h-1l-0.1-0.1v0.5l-0.1,0.1v0.5l-0.1,0.2v0.4l-0.1,0.2v0.4l-0.1,0.2v0.3l-0.1,0.1v0.5l-0.1,0.1V44l-0.1,0.1
		v0.3l-0.1,0.1v0.3l-0.1,0.2v0.3l-0.1,0.1v0.3l-0.1,0.1v0.3l-0.1,0.1v0.3l-0.1,0.2v0.1l-0.1,0.1v0.3l-0.1,0.2v0.3l-0.1,0.1V48
		l-0.1,0.1v0.3l-0.1,0.1v0.2l-0.1,0.1V49l-0.1,0.1v0.3l-0.1,0.1v0.1l-0.1,0.1v0.1L156.6,50.1z M126.4,75.3L126.4,75.3L126.4,75.3z
		 M126.1,70.3l0.4-0.2V69h-0.4l-0.1,0.4l-0.2,0.8L126.1,70.3z M126.8,71.4l0.1-0.3l-0.4,0.2L126.8,71.4z M125.4,74.3l0.4,0.1
		l-0.2-0.4L125.4,74.3z M126.6,74.6l0.1-0.5l0.2,0.3l0.1-0.3l0.2,0.5L126.6,74.6z M126.8,73.1l0.2-0.4l1.1,0.1h-0.8L126.8,73.1z
		 M127.9,68.2l0.4,0.3l-0.4,0.1V68.2z M127,68.7v-0.3l0.3,0.3L127,68.7z M125.7,72.5l0.3,0.1l-0.2,0.2L125.7,72.5z M125.4,75.3
		l0.3-0.1l-0.2-0.9l-0.1,0.6l-0.4-0.1l0.3,0.4l0.3-0.4L125.4,75.3z M126.4,75.3h1.2l0.2,0.1h1.7l-0.1-0.2l0.1,0.2h0.3l0.3-0.7
		l1.4-0.8l0.1-0.6l-0.6-0.1l-0.5-0.7l0.6-0.6l1-0.3l0.3-1l0.8-0.5l-0.5-0.3l0.5-0.1l0.2,0.3l0.4-0.3l-0.1-0.4l-0.6,0.3l-0.4-0.3
		l0.2-1.1l0.9,0.4l1.1-0.2l0.3-1.3l0.2,0.1l-0.1-0.5l0.9,0.2l0.9-0.1v-0.3l0.1-0.1v-0.2l0.1-0.1v-0.3l0.1-0.1v-0.3l0.1-0.1v-0.2
		l0.1-0.1v-0.3l0.1-0.1v-0.1l0.1-0.1V64l0.1-0.1v-0.3l0.1-0.1v-0.3l0.1-0.1v-0.4l0.1-0.1v-0.3l0.1-0.1v-0.2l0.1-0.1v-0.3l0.1-0.1
		v-0.3l0.1-0.1v-0.3l0.1-0.1v-0.4l0.1-0.1V60l-0.6,0.7v1.1l-0.1-1.2l0.8-0.8v-0.3l0.1-0.1v-0.3l0.1-0.1V59h-0.5l-0.1-0.1h-3.2
		l-0.1-0.1h-5.8l-0.1-0.1l-0.4,0.6v2.7l-1.4,3l-0.5,0.2l0.4,1.8l-0.6,1.3l0.4,0.5l-0.3,0.1l0.6-0.2l0.3,0.1l0.3-0.1l-0.4,0.5
		l0.4,0.2l-0.1,0.3l-0.3-0.2l0.3,0.3l-0.3-0.1l-0.2,0.8l0.3,0.3l-0.5,0.2l0.5,0.3l-0.7,0.5l0.6,0.1l-0.5,0.1l-0.1,0.3l0.3-0.1
		l-0.3,0.7l-0.2-0.3l-0.4,0.1l0.3-0.1h-0.3l0.2-0.3l-0.3,0.2l-0.2-0.2l-0.3,0.1l0.4,0.1l-0.2,0.3l-0.6,0.3l0.3,0.2l-0.2-0.2l0.4-0.2
		l0.1,0.3l0.4-0.1l0.2,0.4l-0.4,0.2h0.5l-0.6,0.2l0.6-0.1l0.4,0.3l-0.3-0.1l0.2,0.3l-0.8-0.2l0.5,0.3l-0.4,0.2l0.3,0.1l-0.3,0.5
		l0.3-0.2l0.3,0.4l-0.4-0.1l0.1,0.3H126.4z M126.1,70.3l0.4-0.2V69h-0.4l-0.1,0.4l-0.2,0.8L126.1,70.3z M126.8,71.4l0.1-0.3
		l-0.4,0.2L126.8,71.4z M125.4,74.3l0.4,0.1l-0.2-0.4L125.4,74.3z M126.6,74.6l0.1-0.5l0.2,0.3l0.1-0.3l0.2,0.5L126.6,74.6z
		 M126.8,73.1l0.2-0.4l1.1,0.1h-0.8L126.8,73.1z M127.9,68.2l0.4,0.3l-0.4,0.1V68.2z M127,68.7v-0.3l0.3,0.3L127,68.7z M125.7,72.5
		l0.3,0.1l-0.2,0.2L125.7,72.5z M138.7,59l-0.1,0.6l-0.4,0.5v0.3l-0.1,0.1v0.4l-0.1,0.1v0.3l-0.1,0.1v0.3l-0.1,0.1V62l-0.1,0.1v0.2
		l-0.1,0.1v0.3l-0.1,0.1v0.4l-0.1,0.1v0.3l-0.1,0.1V64l-0.1,0.1v0.3l-0.1,0.1v0.1l-0.1,0.1v0.3l-0.1,0.1v0.2l-0.1,0.1v0.3l-0.1,0.1
		V66l-0.1,0.1v0.2l-0.1,0.1v0.3l1.2-0.2l0.8-0.4l0.9-1l0.1-0.5l-0.5-0.3l0.3-0.6l-1-0.8l0.3-1.2l-0.1,0.8l0.4,0.5l1.2,0.5l1.6-0.2
		l1.5-1.4l0.6-1.1l1.2-1.3l-0.1-0.3l0.5,0.4l-1.5,1.5l1.2-0.9l0.8-1h-0.2l-0.1-0.1h-1.5l-0.1-0.1h-1.8l-0.1-0.1h-2.1l-0.1-0.1H138.7
		z M126.5,75.3l0.8,0.1l-0.6,0.1v0.3L126.5,75.3L126.5,75.3z M130.1,78.8l1-0.3l-1.4-0.5l-0.5-0.9l-1,0.2v0.4l0.6,0.1l-0.5,0.4
		l0.6,0.3l-0.3,0.2v-0.3l-0.2,0.1l-0.7-0.3l0.5,0.3l-0.3,0.1l-0.1-0.2l-0.6,0.2L130.1,78.8z M128.2,78.8l0.3,0.3l-0.1-0.2h0.4
		l-0.1,0.2l0.5,0.1l-0.6-0.5l0.4-0.1L128.2,78.8z M126.5,78.1l0.5-0.2l-0.5-0.3l-0.4,0.2L126.5,78.1l0.3-0.1L126.5,78.1z
		 M126.6,77.5l0.3,0.2l-0.1-0.2l0.7-0.3h-0.7L126.6,77.5z M125.9,77.5l0.6,0.2l-1-0.5L125.9,77.5z M127.8,78.1l0.4,0.2l-0.1-0.4
		L127.8,78.1z M127.7,78.2l-0.4-0.2v0.2H127.7z M125.4,75.4h-0.3l0.1,0.3L125.4,75.4z M129.6,75.4L129.6,75.4h0.3H129.6z
		 M126.5,75.3l0.8,0.1l-0.6,0.1v0.3L126.5,75.3h-0.6l0.1,0.3l-0.5-0.1l0.5,0.1v0.3l0.3-0.3l0.2,0.2l-0.6,0.2l0.3,0.1l-0.2,0.3
		l0.4,0.3v-0.3l0.1,0.3l-0.1-0.4l0.5,0.2l-0.5-0.3l0.3-0.2l-0.1,0.3l0.4,0.2l-0.3,0.5l0.1-0.3l-0.2,0.3v-0.2h-0.4v0.5l0.5-0.2
		l-0.3,0.3l0.3,0.1l0.1-0.4h0.8l0.1,0.4l-0.4,0.3l0.1-0.3l-0.4,0.1l0.6,0.3l0.3-0.8l1.1-0.3l0.5,0.1l-0.3-0.5h-0.4h0.4l-0.3-0.3
		l0.8-0.6l-0.1-0.1h-1.7l-0.2-0.1H126.5z M130.1,78.8l1-0.3l-1.4-0.5l-0.5-0.9l-1,0.2v0.4l0.6,0.1l-0.5,0.4l0.6,0.3l-0.3,0.2v-0.3
		l-0.2,0.1l-0.7-0.3l0.5,0.3l-0.3,0.1l-0.1-0.2l-0.6,0.2L130.1,78.8z M128.2,78.8l0.3,0.3l-0.1-0.2h0.4l-0.1,0.2l0.5,0.1l-0.6-0.5
		l0.4-0.1L128.2,78.8z M126.5,78.1l0.5-0.2l-0.5-0.3l-0.4,0.2L126.5,78.1l0.3-0.1L126.5,78.1z M126.6,77.5l0.3,0.2l-0.1-0.2l0.7-0.3
		h-0.7L126.6,77.5z M125.9,77.5l0.6,0.2l-1-0.5L125.9,77.5z M127.8,78.1l0.4,0.2l-0.1-0.4L127.8,78.1z M127.7,78.2l-0.4-0.2v0.2
		H127.7z M125.4,75.4h-0.3l0.1,0.3L125.4,75.4z"/>
	<polygon class="st0" points="130.7,44.9 131.6,45.7 131.3,46 131.1,45.6 130.9,45.8 130.2,45.3 130.3,44.7 	"/>
	<polygon class="st0" points="133,48.6 132.7,48.1 132.9,47.5 	"/>
	<polygon class="st0" points="130.7,44.9 131.6,45.7 131.3,46 131.1,45.6 130.9,45.8 130.2,45.3 130.3,44.7 	"/>
	<polygon class="st0" points="133,48.6 132.7,48.1 132.9,47.5 	"/>
	<polygon class="st0" points="151.9,51.5 151.5,51.2 151.3,51.4 151.5,51.1 151.3,50.6 152,50.5 151.9,50.7 152.2,51.1 151.7,50.6 
		151.5,50.8 	"/>
	<polygon class="st0" points="152.6,49 152.4,49 152.6,48.5 152.3,48.7 152.6,48.2 152.9,48.8 	"/>
	<polygon class="st0" points="148.4,53 149,53 148.9,53.3 	"/>
	<polygon class="st0" points="151.9,51.5 151.5,51.2 151.3,51.4 151.5,51.1 151.3,50.6 152,50.5 151.9,50.7 152.2,51.1 151.7,50.6 
		151.5,50.8 	"/>
	<polygon class="st0" points="152.6,49 152.4,49 152.6,48.5 152.3,48.7 152.6,48.2 152.9,48.8 	"/>
	<polygon class="st0" points="148.4,53 149,53 148.9,53.3 	"/>
	<path class="st0" d="M98.6,12.8l0.1-0.4L98.6,12.8z"/>
	<path class="st0" d="M98.6,12.8l0.1-0.4L98.6,12.8z"/>
	<polygon class="st0" points="101,11.8 100.6,11.7 100.5,12 100.4,11.5 	"/>
	<polygon class="st0" points="99.9,10.2 100.1,10.3 99.5,10.2 	"/>
	<polygon class="st0" points="101,11.8 100.6,11.7 100.5,12 100.4,11.5 	"/>
	<polygon class="st0" points="99.9,10.2 100.1,10.3 99.5,10.2 	"/>
	<polygon class="st0" points="108.4,13.5 109,14 108.4,13.8 	"/>
	<polygon class="st0" points="114.3,17.1 114.4,17.4 114,17.2 	"/>
	<polygon class="st0" points="114.8,17.4 115.7,18.4 114.8,18.2 	"/>
	<polygon class="st0" points="108.4,13.5 109,14 108.4,13.8 	"/>
	<polygon class="st0" points="114.3,17.1 114.4,17.4 114,17.2 	"/>
	<polygon class="st0" points="114.8,17.4 115.7,18.4 114.8,18.2 	"/>
	<path class="st0" d="M93.4,2.1l0.3-1.5l1,0.5l-0.1,1h0.4L95.3,2l5.5-0.3l0.1-0.1l1.5,0l-1.1,0.8l-0.7-0.4l-0.1-0.8L100.3,1
		l-0.6-0.6l-1.3,0l-0.3,0.4l-1.8,0.1L94.1,0l-1.5,0.2l-0.1,2h0.6l0.1-0.1H93.4z M130.9,3.6L130.9,4l-0.3-0.3L130.9,3.6z M130.9,3.6
		L130.9,4l-0.3-0.3L130.9,3.6z M123.2,4.6l0.2,0.1l0.2-0.6L123,3.7l0.4,0.3L123.2,4.6z M124.3,5.4v0.3V5.3l-0.6-0.4L124.3,5.4z
		 M122.6,6l0.3-0.3l-0.5-0.5l-0.2,0.6L122.6,6z M123.2,4.6l0.2,0.1l0.2-0.6L123,3.7l0.4,0.3L123.2,4.6z M124.3,5.4v0.3V5.3l-0.6-0.4
		L124.3,5.4z M122.6,6l0.3-0.3l-0.5-0.5l-0.2,0.6L122.6,6z M123,6.3h-0.3l0.1-0.3l-0.3,0.1l0.3,0.3L123,6.3z M123,6.3h-0.3l0.1-0.3
		l-0.3,0.1l0.3,0.3L123,6.3z M117.8,8.6l0.5-0.1l-0.1-0.3l-0.3-0.1L117.8,8.6z M120.7,7.2l-1-0.2L117,7.5l-0.3,0.6l-0.6,0.1h0.8
		l1.2-0.8h0.8l0.2,0.2l-0.5,0.1l0.3,0.2l1.7,0.3V7.7l0.1-0.1V7.2z M117.8,8.6l0.5-0.1l-0.1-0.3l-0.3-0.1L117.8,8.6z M129,11.8
		l0.4-0.5l2,0.3l0.3-0.4l-1.2-0.5l0.4-0.2h-0.6l-0.3-0.4l-2.7-0.3l-0.6,0.3l0.7,0.2l-0.1,0.4l0.5,0.5l-1.7-0.1l-0.3,0.2l0.6,0.4
		l1.7-0.2l0.6,0.6L129,11.8z M134,11.9l0.3-0.4h-1.5l0.1,0.4H134z M138.3,13.8l0.4-0.3l-0.3-0.3l-0.3,0.2L138.3,13.8z M127.1,9
		l0.1-0.3L126.6,9L127.1,9z M120.7,8.2l1.2,0.2l0.6,0.8l0.8,0.1l0.1,0.3l-0.6,0.5l2.6-0.1l0.8-0.3l-1.5-0.4l0.1-0.4l-1.2-0.2
		l-2.6-1.4l-0.2-0.1v0.5l-0.1,0.1V8.2z M129,11.8l0.4-0.5l2,0.3l0.3-0.4l-1.2-0.5l0.4-0.2h-0.6l-0.3-0.4l-2.7-0.3l-0.6,0.3l0.7,0.2
		l-0.1,0.4l0.5,0.5l-1.7-0.1l-0.3,0.2l0.6,0.4l1.7-0.2l0.6,0.6L129,11.8z M134,11.9l0.3-0.4h-1.5l0.1,0.4H134z M138.3,13.8l0.4-0.3
		l-0.3-0.3l-0.3,0.2L138.3,13.8z M127.1,9l0.1-0.3L126.6,9L127.1,9z M129,11.8l0.5-0.5l2,0.3l0.3-0.4l-1.2-0.5l0.4-0.2h-0.6
		l-0.3-0.4l-2.7-0.3l-0.6,0.3l0.7,0.2l-0.1,0.4l0.5,0.5l-1.7-0.1l-0.3,0.2l0.6,0.4l1.7-0.2l0.6,0.6L129,11.8z M137.7,19.5l-0.4-0.4
		l1-0.3H136l0.6,0.2l-1.4,0.4l-1.2-0.6l-1.9,0.1l-0.3-0.6l-1.2-0.3l-0.4-0.7l-0.2,0.6l0.5-0.1V18l-0.3-0.1l-1.4,0.7l0.4,0.8
		 M120.7,8.2l1.2,0.2l0.6,0.8l0.8,0.1l0.1,0.3l-0.6,0.5l2.6-0.1l0.8-0.3l-1.5-0.4l0.1-0.4l-1.2-0.2l-2.6-1.4l-0.2-0.1 M128.3,19.4
		l0.4-0.6l-0.4-0.8l0.8-0.5l-0.6-0.4l-1.5,1.2l-0.9-0.1l-0.1,0.3l-0.6-0.1l-0.4,0.3l-0.5,0.6v0.1 M123.2,4.6l0.2,0.1l0.2-0.6
		L123,3.7l0.4,0.3L123.2,4.6z M139.1,19.4l0.1-0.6l-0.7,0.1l0.2,0.5l-0.5,0.2L139.1,19.4z M123,6.3h-0.3l0.1-0.3l-0.3,0.1l0.3,0.3
		L123,6.3z M124.3,5.4v0.3V5.3l-0.6-0.4L124.3,5.4z M134,11.9l0.3-0.4h-1.5l0.1,0.4H134z M122.6,6l0.3-0.3l-0.5-0.5l-0.2,0.6
		L122.6,6z M138.3,13.8l0.4-0.3l-0.3-0.3l-0.3,0.2L138.3,13.8z M127.1,9l0.1-0.3L126.6,9L127.1,9z M92.5,2.2v0.2l0.8,1l-0.4,0.5
		l0.2,0.2h-0.7l0.6,0.8l0.4-0.3l0.5,0.8l-0.3,1.1l1.1,1l0.1,0.6l0.5-0.3l-0.1-0.7l-0.6-0.3V5L94,4l0.1-0.6l-0.6-1.3 M94.7,2.1v0.8
		l0.5,0.8h0.4l-0.2,0.5l0.8,0.8l-0.4,0.5l0.8,0.5v0.3l1.2,1.5l0.4,1.3l-0.5,0.6l0.3,0.1l-0.4,0.2l0.1,0.3l1.4,1.5l1.3,0.3l0.6,0.6
		l0.9,0.3 M94.5,2.9l0.1,0.2l0.1-0.4L94.5,2.9z M94.5,2.9l0.1,0.2l0.1-0.4L94.5,2.9z M94.7,2.1v0.8l0.5,0.8h0.4l-0.2,0.5l0.8,0.8
		l-0.4,0.5l0.8,0.5v0.3l1.2,1.5l0.4,1.3l-0.5,0.6l0.3,0.1l-0.4,0.2l0.1,0.3l1.4,1.5l1.3,0.3l0.6,0.6l0.9,0.3v-0.2l0.1-0.1l1.7-9.3
		V3.6l0.1-0.1V3.2l0.1-0.1l-1.6-0.9l0.1-0.1V1.8l0.1-0.1l-1.5,0l-0.1,0.1L95.3,2l-0.2,0.1H94.7z M92.5,2.2v0.2l0.8,1l-0.4,0.5
		l0.2,0.2h-0.7l0.6,0.8l0.4-0.3l0.5,0.8l-0.3,1.1l1.1,1l0.1,0.6l0.5-0.3l-0.1-0.7l-0.6-0.3V5L94,4l0.1-0.6l-0.6-1.3h-0.1l-0.1,0.1
		H92.5z M94.5,2.9l0.1,0.2l0.1-0.4L94.5,2.9z M115.4,19.4l-0.3-0.3l0.4,0.3h1.8l-0.8-1.3l0.8-2.9l-0.2-0.9l-1.5-0.6l-3,0.3l-0.7-0.2
		l-0.3,0L112,12l0.5-0.6l0.3,0l0.3-0.4l0.1,0.6l0.5-1.3l-0.3-0.1l1-1.5l-1.2-0.2l-2,0.5l-0.6,1.6l-0.8,0.8l-0.7-0.2l-1.9,0.6
		l-0.6-0.6h-0.6l-1.3-3V7.9l0.3-1.7l0.1-0.6l0.4-0.1l-0.1,0.3l0.4-0.8l-1.5-0.3l-0.2-1l-1-1.7l-0.7-0.1l-0.1,0.1V2l-0.1,0.1l1.6,0.9
		l-0.1,0.1v0.3l-0.1,0.1v0.1l-1.7,9.3l-0.1,0.1v0.2l2.9,1l2.1-0.5l2.6,2l2.6,0.7l-0.3-0.1l1.3-0.2l0.1,0.5h-0.4l1.9,1.7l-0.3,0.2
		l0.3,0.1v0.7H115.4z M120.3,21.8l-0.5-0.7l0.5-0.3v-0.3l0.1-0.2V20l-1.1,0.6l-0.8-0.4l0.1,0.3l-0.4-0.1l-0.7-1h-1.8l0.1,0.1
		l1.1,0.9V21h0.3l-0.1-0.3l0.5,0.7l0.1-0.3l1,0.1l0.3,0.5l0.5-0.3l0.1,0.7h0.4L120.3,21.8z M114.8,19.4v0.1l0.5,0.3l0.3-0.3
		l-0.1-0.2H114.8z"/>
	<path class="st1" d="M0.5,30.4v-4c0-1.8,0-3.3-0.1-4.4c0.2,0,0.4-0.1,0.7-0.1c0.6,0,0.9,0.2,0.9,0.7c0,0.1,0,0.3,0,0.8
		c0,0.4,0,1-0.1,1.6s0,1.3,0,1.9v1.7c0,2.6,0,4.3,0.1,4.8c0.5,0,0.9,0,1.2,0c1.8,0,3-0.1,3.5-0.4c0.1,0.3,0.1,0.5,0.1,0.8
		c0,0.2-0.1,0.4-0.2,0.5c-0.2,0.2-1.1,0.3-2.7,0.3c-1.4,0-2.3,0-2.6,0c-0.3,0-0.5-0.1-0.6-0.3s-0.2-0.4-0.2-0.8c0-0.2,0-0.7,0-1.4
		C0.5,31.4,0.5,30.8,0.5,30.4z"/>
	<path class="st1" d="M10.8,31.6c-0.2,0-0.8,0-1.7,0c-0.1,0.2-0.2,0.5-0.4,1c-0.2,0.5-0.4,1-0.5,1.3s-0.2,0.7-0.3,1
		c-0.7-0.1-1-0.3-1-0.6c0-0.1,0.1-0.3,0.2-0.6c0.1-0.3,0.3-0.8,0.6-1.5c0.3-0.7,0.5-1.4,0.8-2.1c0.9-2.6,1.5-4.4,1.8-5.4
		c0.2,0,0.4-0.1,0.7-0.1c0.3,0,0.4,0,0.5,0.1c0.1,0.1,0.2,0.3,0.4,0.7c0.1,0.3,0.4,1,0.8,2.2c0.4,1.2,0.7,2.1,1,2.8
		c0.6,1.5,1.1,2.8,1.7,3.9c-0.3,0.2-0.6,0.3-0.8,0.3c-0.4,0-0.6-0.1-0.7-0.4c-0.1-0.2-0.4-1.1-1-2.8C11.6,31.6,11,31.6,10.8,31.6z
		 M12.2,30.6c-0.2-0.6-0.7-1.9-1.4-4.1c-0.6,1.8-1.1,3.2-1.4,4c0.7,0,1.2,0,1.6,0C11.6,30.6,12,30.6,12.2,30.6z"/>
	<path class="st1" d="M17,31.2v-3c0-0.6,0-1.4,0-2.4c-1.4,0-2.3,0-2.7,0.1c0-0.1,0-0.2,0-0.5c0-0.2,0.1-0.4,0.2-0.5
		c0.1-0.1,0.3-0.1,0.5-0.1c0.1,0,0.3,0,0.7,0c0.4,0,0.7,0,0.9,0h1.7c1.6,0,2.5,0,2.9,0c0,0.1,0,0.3,0,0.5c0,0.4-0.2,0.6-0.6,0.6h-2
		c0,0.1,0,0.4,0,0.7s0,0.7,0,1s0,0.7,0,1v3c0,1.3,0.1,2.3,0.3,2.9c-0.2,0.1-0.4,0.1-0.8,0.1c-0.3,0-0.5-0.1-0.6-0.2
		C17,34.4,17,34.1,17,33.8c0-0.2,0-0.5,0-1.2C17,32,17,31.6,17,31.2z"/>
	<path class="st1" d="M23,31.2v-3c0-1.3,0-2.5-0.1-3.4c0.2,0,0.4-0.1,0.7-0.1c0.6,0,0.8,0.2,0.8,0.6c0,0.1,0,0.2,0,0.6
		s0,0.8-0.1,1.3s0,1,0,1.5v3c0,1.3,0.1,2.3,0.3,2.9c-0.2,0.1-0.4,0.1-0.8,0.1c-0.3,0-0.5-0.1-0.6-0.2c-0.1-0.1-0.2-0.3-0.2-0.6
		c0-0.2,0-0.5,0-1.2C23,32,23,31.6,23,31.2z"/>
	<path class="st1" d="M34.6,34.6c-0.2,0-0.4,0-0.5,0c-0.4,0-0.7-0.1-0.8-0.4c-0.4-0.6-1-1.8-2-3.5c-1-1.8-1.8-3.1-2.4-4.1
		c0,1,0,2.5,0,4.5c0,1.7,0.1,2.8,0.3,3.4c-0.2,0.1-0.4,0.1-0.6,0.1c-0.3,0-0.5-0.1-0.6-0.2c-0.1-0.1-0.2-0.3-0.2-0.6
		c0-0.2,0-0.5,0-1.2c0-0.6,0-1.1,0-1.5v-3c0-1.7-0.1-2.8-0.3-3.4c0.2-0.1,0.5-0.1,0.8-0.1c0.4,0,0.7,0.1,0.9,0.4
		c0.5,0.5,1.1,1.5,2,3s1.7,2.9,2.3,4.3c-0.1-0.9-0.1-2.3-0.1-4.1c0-1.4,0-2.6-0.1-3.6c0.2,0,0.4,0,0.5,0c0.5,0,0.8,0.2,0.8,0.6
		c0,0.1,0,0.2,0,0.6c0,0.3,0,0.8-0.1,1.3s0,1,0,1.5v2.6C34.5,32.7,34.6,33.8,34.6,34.6z"/>
	<path class="st1" d="M45.2,30.7c-0.3,0-1,0-2.2,0c-0.8,2.2-1.3,3.6-1.5,4.4c-0.4-0.1-0.7-0.2-0.8-0.3c-0.2-0.1-0.2-0.3-0.2-0.5
		c0-0.2,0.2-0.9,0.8-2.1c0.5-1.3,1.1-2.9,1.8-4.9c0.7-2,1.3-3.7,1.7-5.2c0.2,0,0.5-0.1,0.7-0.1c0.3,0,0.5,0.1,0.6,0.2
		c0.1,0.1,0.2,0.4,0.4,0.8c0.7,2.6,1.4,4.7,2,6.3c0.9,2.6,1.6,4.3,2,5.2c-0.3,0.3-0.6,0.4-0.8,0.4c-0.4,0-0.6-0.2-0.8-0.5
		c-0.2-0.6-0.6-1.8-1.2-3.7C46.2,30.7,45.4,30.7,45.2,30.7z M47.2,29.5c-0.4-1.1-1-3-1.8-5.7c-0.1,0.3-0.4,1.1-0.8,2.4
		c-0.4,1.3-0.8,2.4-1.1,3.3c0.9,0,1.6,0,2.2,0C46.3,29.6,46.8,29.5,47.2,29.5z"/>
	<path class="st1" d="M60.9,28.1v3.5c0,1.3,0.1,2.3,0.3,3c-0.2,0.1-0.4,0.1-0.7,0.1s-0.5-0.1-0.7-0.2c-0.1-0.1-0.2-0.3-0.2-0.6
		c0-0.3,0-1.3,0-2.9s0-3,0-4.2c-0.8,1.7-1.7,4.4-2.7,7.9c-0.1,0-0.3,0.1-0.6,0.1c-0.4,0-0.6-0.2-0.7-0.4c-0.3-0.6-0.7-1.7-1.3-3.5
		c-0.6-1.8-1.1-3.1-1.5-4v4.9c0,1.3,0.1,2.3,0.3,3c-0.2,0.1-0.4,0.1-0.6,0.1c-0.3,0-0.5-0.1-0.6-0.2c-0.1-0.1-0.2-0.3-0.2-0.6
		c0-0.2,0-0.5,0-1.2c0-0.6,0-1.1,0-1.5v-3.7c0-1.1-0.1-2-0.3-2.6c0.4-0.1,0.7-0.1,0.9-0.1c0.5,0,0.9,0.2,1.1,0.7
		c0.4,0.6,0.8,1.4,1.1,2.4c0.4,0.9,0.7,1.8,0.9,2.4c0.2,0.7,0.5,1.6,0.8,2.8c0.7-3.1,1.7-5.6,2.8-7.6c0.3-0.5,0.6-0.7,1.1-0.7
		c0.3,0,0.6,0,0.9,0.1C61,25.4,60.9,26.5,60.9,28.1z"/>
	<path class="st1" d="M65.5,25.8c0,0.3,0.1,1.3,0.1,3h1.1c0.8,0,1.4,0,1.7-0.1c0,0.1,0.1,0.2,0.1,0.4c0,0.3-0.1,0.4-0.2,0.5
		c-0.1,0.1-0.3,0.1-0.5,0.2c-0.2,0-0.6,0-1,0h-1.3c0,2,0,3.3,0.1,3.7c0.4,0,0.8,0,1,0c1.6,0,2.6-0.1,3.1-0.3
		c0.1,0.2,0.1,0.5,0.1,0.7c0,0.2,0,0.4-0.1,0.4c-0.2,0.1-1,0.2-2.4,0.2c-0.3,0-0.7,0-1.4,0c-0.6,0-0.9,0-1,0c-0.3,0-0.5-0.1-0.6-0.2
		c-0.1-0.1-0.2-0.3-0.2-0.6c0-0.2,0-0.6,0-1.2c0-0.6,0-1.1,0-1.4v-2.9c0-1.5-0.1-2.6-0.2-3.4c1.2-0.1,2.2-0.1,3.2-0.1
		c1.4,0,2.2,0.1,2.4,0.2c0.1,0.1,0.1,0.2,0.1,0.4c0,0.3,0,0.5-0.1,0.7c-0.6-0.2-1.4-0.3-2.6-0.3C66.6,25.8,66.1,25.8,65.5,25.8z"/>
	<path class="st1" d="M77.4,33.3c0.3,0.3,0.5,0.4,0.8,0.4c0.1,0,0.2,0,0.4,0c0.1,0.2,0.1,0.3,0.1,0.5c0,0.4-0.4,0.6-1.1,0.6
		c-0.3,0-0.7-0.1-1-0.4c-0.3-0.3-0.6-0.7-0.9-1.2c-0.3-0.5-0.5-0.9-0.7-1.3c-0.2-0.4-0.4-0.8-0.6-1.3c-0.2-0.1-0.3-0.2-0.3-0.4
		c0-0.1,0-0.3,0.1-0.6c0.3,0.1,0.5,0.1,0.7,0.1c0.5,0,1-0.2,1.3-0.5c0.3-0.4,0.5-0.9,0.5-1.5c0-0.7-0.2-1.3-0.6-1.5s-1-0.4-1.7-0.4
		c-0.1,0-0.4,0-1.1,0.1c0,0.6,0.1,1.6,0.1,3v2.9c0,1.3,0.1,2.3,0.3,2.9c-0.2,0.1-0.5,0.1-0.8,0.1c-0.3,0-0.5-0.1-0.6-0.2
		c-0.1-0.1-0.2-0.3-0.2-0.6c0-0.2,0-0.5,0-1.2c0-0.6,0-1.1,0-1.5v-3c0-1.4-0.1-2.5-0.2-3.4c0.6-0.1,1.4-0.2,2.2-0.2c2.6,0,4,1,4,3
		c0,0.8-0.2,1.4-0.6,1.9c-0.4,0.5-1,0.8-1.7,1C76.6,32,77.1,33,77.4,33.3z"/>
	<path class="st1" d="M81,31.2v-3c0-1.3,0-2.5-0.1-3.4c0.2,0,0.4-0.1,0.7-0.1c0.6,0,0.8,0.2,0.8,0.6c0,0.1,0,0.2,0,0.6
		s0,0.8-0.1,1.3s0,1,0,1.5v3c0,1.3,0.1,2.3,0.3,2.9c-0.2,0.1-0.4,0.1-0.8,0.1c-0.3,0-0.5-0.1-0.6-0.2C81,34.4,81,34.1,81,33.8
		c0-0.2,0-0.5,0-1.2C81,32,81,31.6,81,31.2z"/>
	<path class="st1" d="M91.7,32.5c0.5,0.2,0.7,0.5,0.7,0.9c0,0.4-0.3,0.7-0.8,1c-0.6,0.3-1.2,0.4-2.1,0.4c-1.4,0-2.5-0.5-3.3-1.4
		c-0.8-0.9-1.3-2.2-1.3-3.7c0-1.6,0.4-2.8,1.2-3.7s2-1.3,3.4-1.3c0.8,0,1.4,0.2,1.9,0.5s0.8,0.7,0.8,1.2c0,0.5-0.3,0.8-1,0.9
		c-0.2-0.5-0.4-0.8-0.8-1.1s-0.8-0.4-1.2-0.4c-0.9,0-1.6,0.4-2.1,1.1c-0.6,0.7-0.8,1.6-0.8,2.7c0,1.2,0.3,2.3,0.8,3.1
		c0.6,0.8,1.3,1.2,2.3,1.2c0.4,0,0.9-0.1,1.3-0.3C91.1,33.2,91.4,32.9,91.7,32.5z"/>
	<path class="st1" d="M97.1,31.6c-0.2,0-0.8,0-1.7,0c-0.1,0.2-0.2,0.5-0.4,1c-0.2,0.5-0.4,1-0.5,1.3s-0.2,0.7-0.3,1
		c-0.7-0.1-1-0.3-1-0.6c0-0.1,0.1-0.3,0.2-0.6c0.1-0.3,0.3-0.8,0.6-1.5c0.3-0.7,0.5-1.4,0.8-2.1c0.9-2.6,1.5-4.4,1.8-5.4
		c0.2,0,0.4-0.1,0.7-0.1c0.3,0,0.4,0,0.5,0.1c0.1,0.1,0.2,0.3,0.4,0.7c0.1,0.3,0.4,1,0.8,2.2c0.4,1.2,0.7,2.1,1,2.8
		c0.6,1.5,1.1,2.8,1.7,3.9c-0.3,0.2-0.6,0.3-0.8,0.3c-0.4,0-0.6-0.1-0.7-0.4c-0.1-0.2-0.4-1.1-1-2.8C98,31.6,97.4,31.6,97.1,31.6z
		 M98.6,30.6c-0.2-0.6-0.7-1.9-1.4-4.1c-0.6,1.8-1.1,3.2-1.4,4c0.7,0,1.2,0,1.6,0C98,30.6,98.4,30.6,98.6,30.6z"/>
	<path class="st1" d="M110,34.6c-0.2,0-0.4,0-0.5,0c-0.4,0-0.7-0.1-0.8-0.4c-0.4-0.6-1-1.8-2-3.5c-1-1.8-1.8-3.1-2.4-4.1
		c0,1,0,2.5,0,4.5c0,1.7,0.1,2.8,0.3,3.4c-0.2,0.1-0.4,0.1-0.6,0.1c-0.3,0-0.5-0.1-0.6-0.2c-0.1-0.1-0.2-0.3-0.2-0.6
		c0-0.2,0-0.5,0-1.2c0-0.6,0-1.1,0-1.5v-3c0-1.7-0.1-2.8-0.3-3.4c0.2-0.1,0.5-0.1,0.8-0.1c0.4,0,0.7,0.1,0.9,0.4
		c0.5,0.5,1.1,1.5,2,3s1.7,2.9,2.3,4.3c-0.1-0.9-0.1-2.3-0.1-4.1c0-1.4,0-2.6-0.1-3.6c0.2,0,0.4,0,0.5,0c0.5,0,0.8,0.2,0.8,0.6
		c0,0.1,0,0.2,0,0.6s0,0.8-0.1,1.3s0,1,0,1.5v2.6C109.9,32.7,109.9,33.8,110,34.6z"/>
	<path class="st1" d="M2.4,42.7c0.1,0.9,0.1,3,0.1,6.4h2.2c1.6,0,2.7,0,3.3-0.1c0.1,0.2,0.1,0.4,0.1,0.8c0,0.5-0.1,0.8-0.3,0.9
		s-0.5,0.2-0.9,0.3c-0.5,0-1.1,0-2,0H2.5c0,4.4,0.1,7,0.2,7.9c0.8,0,1.5,0.1,2,0.1c3.1,0,5.1-0.2,6-0.7c0.1,0.4,0.2,0.8,0.2,1.3
		c0,0.4-0.1,0.6-0.2,0.8c-0.3,0.3-1.8,0.5-4.5,0.5c-2.4,0-3.8,0-4.4-0.1c-0.5,0-0.9-0.2-1.1-0.4c-0.2-0.3-0.3-0.7-0.3-1.3
		c0-0.3,0-1.1,0-2.2c0-1.2,0-2.1,0-2.8v-6c0-2.9-0.1-5.2-0.4-7c2-0.2,4-0.3,6-0.3c2.7,0,4.2,0.1,4.5,0.5c0.2,0.2,0.2,0.4,0.2,0.8
		c0,0.5-0.1,0.9-0.2,1.3c-1.1-0.4-2.8-0.6-5.2-0.6C4.4,42.6,3.4,42.6,2.4,42.7z"/>
	<path class="st1" d="M15,55.2v-4.7c0-2.2-0.1-3.9-0.3-5.4c1-0.2,2.2-0.3,3.5-0.3c4.1,0,6.2,1.7,6.2,5.1c0,1.7-0.5,2.9-1.4,3.8
		c-0.9,0.9-2,1.3-3.3,1.3c-1.1,0-2-0.2-2.7-0.8V56c0,2.1,0.1,3.6,0.4,4.6c-0.3,0.1-0.7,0.2-1.2,0.2c-0.5,0-0.8-0.1-1-0.3
		c-0.2-0.2-0.3-0.5-0.3-1c0-0.2,0-0.8,0-1.8C15,56.6,15,55.8,15,55.2z M19.2,53.4c1,0,1.7-0.3,2.2-0.9c0.5-0.6,0.8-1.4,0.8-2.4
		c0-1.4-0.3-2.3-0.9-2.8c-0.6-0.5-1.5-0.8-2.8-0.8c-0.1,0-0.6,0-1.5,0.1c0.1,1.3,0.1,2.8,0.1,4.5V53C17.7,53.3,18.4,53.4,19.2,53.4z
		"/>
	<path class="st1" d="M28.7,55.2v-4.7c0-2.1-0.1-3.9-0.2-5.4c0.3-0.1,0.7-0.1,1.1-0.1c0.9,0,1.3,0.3,1.3,0.9c0,0.1,0,0.4-0.1,1
		s-0.1,1.3-0.1,2.1c0,0.8,0,1.6,0,2.4c0.8,0,1.9,0,3.5,0c1.5,0,2.6,0,3.4,0v-1c0-2.1-0.1-3.9-0.2-5.3c0.3-0.1,0.7-0.1,1.1-0.1
		c0.9,0,1.3,0.3,1.3,0.9c0,0.1,0,0.4-0.1,0.9c0,0.5-0.1,1.2-0.1,2c0,0.8,0,1.6,0,2.3v4.7c0,2.1,0.1,3.6,0.4,4.6
		c-0.3,0.1-0.7,0.2-1.2,0.2c-0.5,0-0.8-0.1-1-0.3c-0.2-0.2-0.3-0.5-0.3-1c0-0.2,0-0.8,0-1.8c0-1,0-1.8,0-2.3V53c-0.8,0-1.9,0-3.4,0
		c-1.6,0-2.7,0-3.5,0v2.9c0,2.1,0.1,3.6,0.4,4.6c-0.3,0.1-0.7,0.2-1.2,0.2c-0.5,0-0.8-0.1-1-0.3c-0.2-0.2-0.3-0.5-0.3-1
		c0-0.2,0-0.8,0-1.8S28.7,55.8,28.7,55.2z"/>
	<path class="st1" d="M47.6,46.8c0.1,0.5,0.1,2,0.1,4.6h1.8c1.2,0,2.1,0,2.7-0.1c0.1,0.2,0.1,0.4,0.1,0.7c0,0.4-0.1,0.7-0.2,0.8
		s-0.4,0.2-0.7,0.3c-0.4,0-0.9,0-1.6,0h-2c0,3.2,0.1,5.2,0.2,5.8c0.7,0,1.2,0.1,1.6,0.1c2.4,0,4-0.2,4.8-0.5
		c0.1,0.4,0.2,0.7,0.2,1.1c0,0.3-0.1,0.6-0.2,0.7c-0.3,0.2-1.5,0.3-3.8,0.3c-0.4,0-1.2,0-2.1,0c-1,0-1.5,0-1.5,0
		c-0.5,0-0.8-0.1-0.9-0.3c-0.2-0.2-0.2-0.5-0.2-1c0-0.3,0-0.9,0-1.8s0-1.7,0-2.2v-4.6c0-2.3-0.1-4.1-0.3-5.4
		c1.8-0.1,3.5-0.2,5.1-0.2c2.2,0,3.5,0.1,3.8,0.4c0.1,0.1,0.2,0.4,0.2,0.7c0,0.4-0.1,0.8-0.2,1.1c-0.9-0.3-2.3-0.5-4.2-0.5
		C49.4,46.8,48.5,46.8,47.6,46.8z"/>
	<path class="st1" d="M73.4,50.4v5.5c0,2.1,0.1,3.7,0.4,4.7c-0.2,0.1-0.6,0.2-1.1,0.2s-0.9-0.1-1-0.3c-0.2-0.2-0.3-0.5-0.3-1
		c0-0.5,0-2,0-4.5c0-2.5,0-4.7,0-6.6c-1.2,2.7-2.6,6.9-4.2,12.4c-0.2,0.1-0.5,0.1-0.9,0.1c-0.6,0-0.9-0.2-1.1-0.6
		c-0.4-0.9-1.1-2.7-2-5.5c-0.9-2.8-1.7-4.9-2.4-6.4v7.7c0,2.1,0.1,3.7,0.4,4.7c-0.4,0.1-0.7,0.2-1,0.2c-0.5,0-0.8-0.1-1-0.3
		c-0.2-0.2-0.2-0.5-0.2-1c0-0.2,0-0.8,0-1.8c0-1,0-1.8,0-2.3v-5.9c0-1.8-0.1-3.1-0.4-4.1c0.6-0.1,1-0.2,1.4-0.2
		c0.8,0,1.3,0.4,1.8,1.1c0.6,1,1.2,2.2,1.8,3.7c0.6,1.5,1,2.8,1.4,3.8c0.3,1,0.8,2.5,1.3,4.4c1.1-4.9,2.6-8.9,4.4-12
		c0.4-0.7,1-1.1,1.8-1.1c0.4,0,0.9,0.1,1.4,0.2C73.6,46.2,73.4,47.9,73.4,50.4z"/>
	<path class="st1" d="M81.5,46.8c0.1,0.5,0.1,2,0.1,4.6h1.8c1.2,0,2.1,0,2.7-0.1c0.1,0.2,0.1,0.4,0.1,0.7c0,0.4-0.1,0.7-0.2,0.8
		c-0.2,0.1-0.4,0.2-0.7,0.3c-0.4,0-0.9,0-1.6,0h-2c0,3.2,0.1,5.2,0.2,5.8c0.7,0,1.2,0.1,1.6,0.1c2.4,0,4-0.2,4.8-0.5
		c0.1,0.4,0.2,0.7,0.2,1.1c0,0.3-0.1,0.6-0.2,0.7c-0.3,0.2-1.5,0.3-3.8,0.3c-0.4,0-1.2,0-2.1,0c-1,0-1.5,0-1.5,0
		c-0.5,0-0.8-0.1-0.9-0.3c-0.2-0.2-0.2-0.5-0.2-1c0-0.3,0-0.9,0-1.8s0-1.7,0-2.2v-4.6c0-2.3-0.1-4.1-0.3-5.4
		c1.8-0.1,3.5-0.2,5.1-0.2c2.2,0,3.5,0.1,3.8,0.4c0.1,0.1,0.2,0.4,0.2,0.7c0,0.4-0.1,0.8-0.2,1.1c-0.9-0.3-2.3-0.5-4.2-0.5
		C83.2,46.8,82.4,46.8,81.5,46.8z"/>
	<path class="st1" d="M101,58.5c0.4,0.4,0.9,0.7,1.3,0.7c0.1,0,0.3,0,0.6-0.1c0.1,0.3,0.2,0.5,0.2,0.8c0,0.6-0.6,0.9-1.8,0.9
		c-0.5,0-1.1-0.2-1.6-0.6c-0.5-0.4-1-1-1.4-1.9s-0.8-1.5-1.1-2c-0.2-0.5-0.5-1.3-0.9-2.1c-0.4-0.1-0.5-0.3-0.5-0.6
		c0-0.2,0.1-0.5,0.2-0.9c0.4,0.1,0.8,0.2,1.1,0.2c0.9,0,1.5-0.3,2.1-0.9c0.5-0.6,0.8-1.3,0.8-2.3c0-1.2-0.3-2-0.9-2.4
		c-0.6-0.5-1.5-0.7-2.7-0.7c-0.1,0-0.7,0-1.7,0.1c0.1,0.9,0.1,2.5,0.1,4.7V56c0,2.1,0.1,3.6,0.4,4.6c-0.3,0.1-0.7,0.2-1.2,0.2
		c-0.5,0-0.8-0.1-1-0.3c-0.2-0.2-0.3-0.5-0.3-1c0-0.2,0-0.8,0-1.8s0-1.8,0-2.3v-4.7c0-2.2-0.1-4-0.3-5.4c1-0.2,2.2-0.3,3.5-0.3
		c4.1,0,6.2,1.6,6.2,4.7c0,1.2-0.3,2.2-1,3c-0.7,0.8-1.5,1.3-2.6,1.6C99.7,56.6,100.5,58,101,58.5z"/>
	<path class="st1" d="M111.1,55.9c-0.4,0-1.3,0-2.7-0.1c-0.1,0.2-0.3,0.8-0.6,1.6s-0.6,1.5-0.7,2.1c-0.2,0.6-0.3,1.1-0.5,1.6
		c-1.1-0.2-1.6-0.5-1.6-0.9c0-0.2,0.1-0.5,0.3-1c0.2-0.5,0.5-1.2,0.9-2.3c0.4-1.1,0.8-2.1,1.2-3.2c1.4-4,2.4-6.8,2.8-8.5
		c0.3-0.1,0.6-0.1,1-0.1c0.4,0,0.7,0.1,0.9,0.2c0.2,0.1,0.3,0.5,0.6,1.1c0.1,0.4,0.5,1.6,1.2,3.5c0.7,1.9,1.2,3.4,1.5,4.4
		c0.9,2.4,1.8,4.4,2.6,6.1c-0.5,0.3-0.9,0.4-1.2,0.4c-0.6,0-0.9-0.2-1.1-0.6c-0.1-0.3-0.7-1.7-1.6-4.4
		C112.4,55.9,111.4,55.9,111.1,55.9z M113.4,54.3c-0.4-0.9-1.1-3-2.2-6.4c-0.9,2.9-1.7,5-2.2,6.4c1.1,0,2,0.1,2.6,0.1
		C112.4,54.3,113,54.3,113.4,54.3z"/>
</g>
</svg>
